<?xml version="1.0" standalone="no"?>
<!DOCTYPE svg PUBLIC "-//W3C//DTD SVG 20010904//EN"
 "http://www.w3.org/TR/2001/REC-SVG-20010904/DTD/svg10.dtd">
<svg version="1.0" xmlns="http://www.w3.org/2000/svg"
 width="496.000000pt" height="176.000000pt" viewBox="0 0 496.000000 176.000000"
 preserveAspectRatio="xMidYMid meet">

<g transform="translate(0.000000,176.000000) scale(0.100000,-0.100000)"
fill="#000000" stroke="none">
<path d="M349 1255 c-79 -25 -129 -101 -129 -196 0 -58 45 -134 114 -191 72
-59 86 -75 86 -100 0 -14 -8 -18 -34 -18 -27 0 -41 8 -70 40 -20 22 -40 40
-46 40 -20 0 -50 -45 -50 -74 0 -108 152 -175 259 -115 47 26 70 57 82 108 15
67 -5 108 -96 196 -46 44 -86 92 -90 106 -8 34 19 89 44 89 29 0 40 -21 43
-85 3 -67 16 -77 68 -55 36 15 54 64 48 125 -12 104 -120 165 -229 130z"/>
<path d="M3145 1257 c-69 -18 -92 -32 -99 -62 -11 -41 4 -97 26 -103 15 -4 19
-11 15 -31 -15 -77 -29 -241 -26 -315 3 -65 8 -89 23 -105 21 -23 59 -27 100
-11 25 9 26 12 27 107 l0 98 24 -64 c30 -81 73 -143 107 -155 33 -12 84 8 105
41 16 24 15 26 -34 76 -76 78 -80 90 -44 135 38 47 69 118 77 175 21 149 -131
257 -301 214z m153 -133 c27 -18 30 -70 7 -118 -17 -35 -81 -103 -90 -95 -2 3
2 48 10 100 12 82 12 95 0 105 -8 6 -15 14 -15 18 0 12 66 6 88 -10z"/>
<path d="M942 1178 c-20 -25 -44 -158 -49 -278 -3 -63 -10 -123 -15 -133 -13
-26 -72 -49 -106 -41 -58 14 -70 44 -18 44 54 0 92 39 106 106 16 75 6 120
-35 161 -26 26 -41 33 -71 33 -78 0 -134 -61 -164 -180 -24 -89 13 -202 80
-246 68 -45 202 -41 246 7 17 19 18 19 40 -2 45 -43 135 -43 181 1 18 16 23
17 33 5 23 -27 97 -48 152 -42 138 14 166 26 192 75 18 35 36 131 36 194 0 45
2 48 26 48 22 0 25 -3 20 -22 -29 -107 -7 -232 47 -272 36 -26 117 -27 165 -2
30 15 36 16 50 3 42 -37 110 -32 149 11 l24 26 14 -21 c56 -80 211 -23 222 81
5 37 2 46 -18 60 -36 25 -54 20 -68 -19 -15 -42 -38 -45 -52 -7 -12 30 3 159
26 225 12 35 11 39 -8 52 -28 20 -91 19 -112 -1 -14 -14 -18 -15 -33 -2 -43
38 -113 26 -154 -25 -29 -37 -43 -81 -53 -167 -9 -80 -23 -112 -49 -108 -19 3
-21 9 -21 88 1 60 6 95 18 119 22 45 22 58 -5 72 -13 6 -33 20 -45 31 -19 18
-26 19 -54 9 -18 -6 -64 -11 -103 -11 -108 -1 -111 -5 -111 -149 0 -103 -3
-122 -19 -140 -40 -44 -134 -47 -162 -5 -13 19 -12 20 21 16 72 -8 115 51 115
156 0 75 -29 123 -81 136 -50 12 -87 1 -124 -39 -46 -49 -67 -101 -73 -180 -2
-38 -9 -78 -14 -87 -12 -24 -35 -23 -48 1 -16 32 -12 182 10 293 23 119 20
127 -52 135 -31 4 -47 1 -56 -9z m-176 -260 c-7 -35 -47 -79 -54 -58 -7 19 30
90 46 90 11 0 13 -8 8 -32z m514 -1 c0 -35 -15 -57 -38 -57 -11 0 -13 8 -8 32
12 60 46 79 46 25z m716 -13 c12 -63 -13 -164 -41 -164 -19 0 -30 41 -29 107
2 92 55 135 70 57z"/>
<path d="M3969 1071 c-50 -16 -71 -33 -90 -74 -24 -54 -24 -103 0 -150 18 -36
18 -37 0 -37 -12 0 -24 -13 -34 -36 -10 -25 -20 -35 -32 -32 -33 6 -25 183 12
279 12 33 -99 55 -125 24 -10 -12 -15 -12 -36 2 -13 8 -42 16 -62 17 -87 2
-133 -71 -140 -222 -7 -143 31 -218 115 -229 34 -4 45 -1 77 27 l37 33 27 -26
c40 -38 82 -44 134 -18 l44 21 40 -21 c79 -41 181 0 202 81 17 68 -7 115 -71
141 -18 7 -40 19 -49 27 -19 16 -24 67 -8 77 10 6 14 -1 24 -47 5 -22 12 -28
34 -28 63 0 91 58 60 125 -21 48 -105 82 -159 66z m-325 -137 c30 -29 12 -194
-20 -194 -24 0 -36 41 -32 110 2 37 10 75 17 84 16 20 16 20 35 0z m364 -189
c7 -32 -50 -14 -71 22 l-19 33 44 -20 c23 -10 45 -26 46 -35z"/>
<path d="M4260 1053 c-47 -25 -75 -70 -90 -149 -24 -128 8 -247 76 -279 46
-21 96 -13 123 20 22 29 36 32 45 10 3 -8 21 -23 40 -32 30 -14 42 -14 74 -5
89 27 146 137 90 176 -35 25 -58 20 -64 -14 -6 -28 -38 -50 -52 -35 -13 13 -5
150 13 219 17 67 17 70 -1 83 -25 18 -98 17 -114 -2 -11 -13 -15 -14 -29 -1
-28 24 -73 28 -111 9z m104 -193 c-1 -66 -19 -120 -40 -120 -35 0 -41 162 -7
196 14 14 17 14 32 -1 11 -11 16 -33 15 -75z"/>
<path d="M2220 355 c-18 -22 -4 -50 35 -68 19 -9 35 -23 35 -31 0 -18 -38 -28
-61 -15 -10 5 -20 5 -23 0 -13 -21 72 -29 92 -9 23 23 13 47 -28 68 -22 11
-40 24 -40 29 0 17 27 30 50 24 16 -4 21 -3 16 5 -10 17 -61 15 -76 -3z"/>
<path d="M2340 314 c0 -74 12 -94 56 -94 28 0 36 5 44 26 13 33 13 124 0 124
-5 0 -10 -24 -10 -53 0 -64 -19 -98 -47 -81 -14 8 -19 26 -21 73 -4 76 -22 81
-22 5z"/>
<path d="M2490 296 c0 -44 4 -76 10 -76 6 0 10 26 10 58 l0 57 33 -54 c47 -79
57 -77 57 13 0 88 -18 103 -22 20 l-3 -56 -30 53 c-45 78 -55 75 -55 -15z"/>
<path d="M2640 295 l0 -75 35 0 c46 0 75 29 75 75 0 22 -8 43 -20 55 -12 12
-33 20 -55 20 l-35 0 0 -75z m78 43 c6 -6 12 -25 12 -43 0 -35 -11 -48 -47
-59 -22 -7 -23 -5 -23 59 0 64 1 66 23 59 12 -3 28 -11 35 -16z"/>
<path d="M2791 305 c-11 -36 -21 -70 -21 -75 0 -18 18 -10 23 10 4 14 14 20
35 20 21 0 31 -6 35 -20 3 -11 10 -20 15 -20 6 0 -1 34 -15 75 -13 41 -31 75
-37 75 -7 0 -23 -29 -35 -65z m48 -7 c1 -10 -6 -18 -14 -18 -16 0 -18 12 -8
49 6 23 7 23 14 5 4 -10 8 -27 8 -36z"/>
</g>
</svg>
